<?xml version="1.0" encoding="UTF-8"?>
<!-- Generated by Pixelmator Pro 3.7 -->
<svg width="1600" height="1600" viewBox="0 0 1600 1600" xmlns="http://www.w3.org/2000/svg">
    <path id="Path" fill="#000000" stroke="none" d="M 875.013367 1524.933228 L 975.013367 1449.933228 L 1075.013306 1524.933228 L 1075.013306 1324.93335 L 875.013367 1324.93335 Z"/>
    <path id="path1" fill="#000000" stroke="none" d="M 275.013336 1300 L 275.013336 1325 C 275.013336 1358.125366 288.200806 1389.937378 311.638672 1413.374634 C 335.076019 1436.812012 366.889313 1450 400.013336 1450 L 837.52002 1450 L 837.52002 1325 L 450.013336 1325 C 436.201324 1325 425.013336 1313.8125 425.013336 1300 C 425.013336 1286.1875 436.200806 1275 450.013336 1275 L 1175 1275 C 1188.812012 1275 1200 1286.1875 1200 1300 C 1200 1313.8125 1188.8125 1325 1175 1325 L 1112.5 1325 L 1112.5 1450 L 1324.993286 1450 L 1324.993286 1174.986694 L 400.006683 1174.986694 C 366.881348 1174.986694 335.069336 1188.174194 311.631989 1211.611938 C 288.194672 1235.049316 275.006683 1266.862671 275.006683 1299.986694 Z"/>
    <path id="path2" fill="#000000" stroke="none" d="M 275.013336 1218.493286 C 311.09079 1167.837402 351.638672 1154.493286 400.013336 1154.493286 L 400.013336 92 C 331.013336 92 275.013336 148 275.013336 217 Z"/>
    <path id="path3" fill="#000000" stroke="none" d="M 1300 92 L 424 92 L 424 1154.493286 L 1325.013306 1154.493286 L 1325.013306 116.986694 C 1324.950806 103.174683 1313.825806 92.049316 1300.013306 91.986694 Z"/>
</svg>
