<?xml version="1.0" encoding="UTF-8"?>
<!-- Generated by Pixelmator Pro 3.7 -->
<svg width="1600" height="1600" viewBox="0 0 1600 1600" xmlns="http://www.w3.org/2000/svg">
    <path id="Path" fill="#000000" stroke="none" d="M 329.489502 253.327637 C 329.489502 237.60022 316.839233 224.865234 301.02713 224.865234 L 222.049301 224.865234 C 206.32193 224.865234 193.586853 237.515503 193.586853 253.327637 L 193.586853 281.961304 L 329.491333 281.961304 Z"/>
    <path id="path1" fill="#000000" stroke="none" d="M 182.463745 1296.190063 L 340.421173 1296.190063 C 356.148529 1296.190063 368.883606 1283.539795 368.883606 1267.727539 L 368.883606 328.285278 C 368.883606 312.557983 356.233337 299.822876 340.421173 299.822876 L 182.463745 299.822876 C 166.90741 299.822876 154.001343 312.473145 154.001343 328.285278 L 154.001343 1267.782227 C 154.001343 1283.338501 166.651611 1296.244629 182.463745 1296.244629 Z"/>
    <path id="path2" fill="#000000" stroke="none" d="M 221.86879 1375 L 300.846588 1375 C 316.573944 1375 329.30899 1362.349731 329.30899 1346.537598 L 329.30899 1317.903687 L 193.40451 1317.903687 L 193.40451 1346.537598 C 193.40451 1362.264893 206.054779 1375 221.866959 1375 Z"/>
    <path id="path3" fill="#000000" stroke="none" d="M 1208.252563 1252.9375 L 1208.252563 328.907715 C 935.845398 384.038208 663.183167 384.038208 390.776093 328.907715 L 390.776093 1252.846313 C 663.183167 1197.715698 935.845398 1197.715698 1208.252563 1252.846313 Z"/>
    <path id="path4" fill="#000000" stroke="none" d="M 1405.605835 253.327637 C 1405.605835 237.60022 1392.955566 224.865234 1377.143311 224.865234 L 1298.165649 224.865234 C 1282.438232 224.865234 1269.703247 237.515503 1269.703247 253.327637 L 1269.703247 281.961304 L 1405.607666 281.961304 Z"/>
    <path id="path5" fill="#000000" stroke="none" d="M 1297.984985 1375 L 1376.962891 1375 C 1392.690308 1375 1405.425293 1362.349731 1405.425293 1346.537598 L 1405.425293 1317.903687 L 1269.520874 1317.903687 L 1269.520874 1346.537598 C 1269.520874 1362.264893 1282.171143 1375 1297.983398 1375 Z"/>
    <path id="Path-copy" fill="#000000" stroke="none" d="M 1258.463745 1296.190063 L 1416.421143 1296.190063 C 1432.14856 1296.190063 1444.883545 1283.539795 1444.883545 1267.727539 L 1444.883545 328.285278 C 1444.883545 312.557983 1432.233276 299.822876 1416.421143 299.822876 L 1258.463745 299.822876 C 1242.907349 299.822876 1230.001343 312.473145 1230.001343 328.285278 L 1230.001343 1267.782227 C 1230.001343 1283.338501 1242.651611 1296.244629 1258.463745 1296.244629 Z"/>
</svg>
