<?xml version="1.0" encoding="UTF-8"?>
<!-- Generated by Pixelmator Pro 3.7 -->
<svg width="1600" height="1600" viewBox="0 0 1600 1600" xmlns="http://www.w3.org/2000/svg">
    <path id="Path-copy" fill="#000000" stroke="none" d="M 1341.726807 343.895874 C 1371.769287 349.519653 1389.292847 384.748779 1402.403076 438.837036 L 1415.592163 334.496094 L 1331.94397 269.922607 L 1413.645996 164.086426 C 1430.925293 164.460205 1447.261841 156.684937 1457.804565 143.028076 C 1476.299683 119.06958 1471.869507 84.647583 1447.911255 66.152588 C 1423.953003 47.657593 1389.530884 52.087036 1371.035767 76.045532 C 1360.493042 89.702515 1357.107422 107.474976 1361.843872 124.096924 L 1279.724854 230.473389 L 1196.122559 165.840942 L 1098.884033 204.547119 C 1154.892212 203.065552 1193.411255 211.097534 1205.917114 239.071899 C 1225.174683 283.249756 1211.817871 324.891602 1165.772339 361.780151 L 1165.831299 361.825684 C 1165.267334 362.799438 1164.540405 363.741211 1163.740967 364.533325 C 1162.468628 366.181641 1161.196289 367.829834 1158.728027 368.836548 C 1148.431274 376.577026 1139.319702 385.702637 1131.693848 396.067749 L 467.398834 1256.592041 C 437.225006 1295.679077 417.843903 1327.843872 394.907593 1371.672241 L 314.363037 1534.545776 L 452.183746 1415.887451 C 488.717957 1382.556152 514.927673 1355.662842 545.160278 1316.621216 L 1209.911133 455.506592 C 1217.890381 445.413574 1224.529297 434.379639 1229.527954 422.549927 C 1230.936646 420.725098 1232.072876 419.253296 1232.304199 416.519653 C 1232.854614 415.44165 1233.536255 414.558716 1234.394409 413.812012 C 1258.060059 360.398315 1294.224731 336.551636 1341.721069 343.90564 Z"/>
    <path id="Path-copy-3" fill="#000000" stroke="none" d="M 258.273163 343.895874 C 228.230667 349.519653 210.707214 384.748779 197.596954 438.837036 L 184.407867 334.496094 L 268.055969 269.922607 L 186.354065 164.086426 C 169.074677 164.460205 152.738144 156.684937 142.19548 143.028076 C 123.700371 119.06958 128.130432 84.647583 152.08876 66.152588 C 176.047043 47.657593 210.469131 52.087036 228.964233 76.045532 C 239.506897 89.702515 242.892609 107.474976 238.156143 124.096924 L 320.275116 230.473389 L 403.877472 165.840942 L 501.115967 204.547119 C 445.107758 203.065552 406.588776 211.097534 394.082855 239.071899 C 374.825287 283.249756 388.182129 324.891602 434.2276 361.780151 L 434.168701 361.825684 C 434.732666 362.799438 435.459656 363.741211 436.258972 364.533325 C 437.531372 366.181641 438.803741 367.829834 441.272003 368.836548 C 451.568756 376.577026 460.680328 385.702637 468.306091 396.067749 L 1132.601196 1256.592041 C 1162.775024 1295.679077 1182.156128 1327.843872 1205.092407 1371.672241 L 1285.636963 1534.545776 L 1147.816284 1415.887451 C 1111.282104 1382.556152 1085.072266 1355.662842 1054.839722 1316.621216 L 390.088898 455.506592 C 382.10965 445.413574 375.470764 434.379639 370.472015 422.549927 C 369.063293 420.725098 367.927155 419.253296 367.695831 416.519653 C 367.145416 415.44165 366.463776 414.558716 365.60556 413.812012 C 341.940002 360.398315 305.775299 336.551636 258.27887 343.90564 Z"/>
    <path id="Path" fill="#a21800" stroke="none" d="M 1301.880005 420.746704 C 967.506653 293.87207 633.133362 293.87207 298.76001 420.746704 C 224.38533 1377.626587 800.013367 1508.866699 800.013367 1508.866699 C 800.013367 1508.866699 1375.640015 1377.615967 1301.893311 420.746704 Z"/>
</svg>
